Neude_beta.sfdir
StartChar: exclam
Encoding: 33 33 18
Width: 725
VWidth: 60
Flags: W
HStem: -0 82.8574<328.837 396.163> 560 20G<321.9 403.1> 560 20G<321.9 403.1>
VStem: 321.9 81.1992<6.52949 76.3276 165.714 580>
LayerCount: 2
Fore
SplineSet
362.5 82.857421875 m 0x90
 384.911132812 82.857421875 403.099609375 64.296875 403.099609375 41.4287109375 c 0
 403.099609375 41.4287109375 403.099609375 41.427734375 403.099609375 41.427734375 c 0
 403.099609375 18.5595703125 384.91015625 0 362.5 -0 c 0
 340.08984375 0 321.900390625 18.5595703125 321.900390625 41.427734375 c 0
 321.900390625 41.427734375 321.900390625 41.4287109375 321.900390625 41.4287109375 c 0
 321.900390625 64.296875 340.088867188 82.857421875 362.5 82.857421875 c 0x90
321.900390625 580 m 1xd0
 403.099609375 580 l 1
 403.099609375 165.713867188 l 1
 321.900390625 165.713867188 l 1
 321.900390625 580 l 1xd0
EndSplineSet
Validated: 1
EndChar
StartChar: quotesingle
Encoding: 39 39 76
Width: 725
VWidth: 60
Flags: W
HStem: 414.286 165.714<321.9 403.1>
VStem: 321.9 81.1992<414.286 580>
LayerCount: 2
Fore
SplineSet
403.099609375 580 m 1
 403.099609375 414.286132812 l 1
 321.900390625 414.286132812 l 1
 321.900390625 580 l 1
 403.099609375 580 l 1
EndSplineSet
Validated: 524289
EndChar
StartChar: plus
Encoding: 43 43 53
Width: 725
VWidth: 60
Flags: W
HStem: 0 21G<321.9 403.1> 0 21G<321.9 403.1> 165.715 82.8574<156.211 321.9 403.1 562.211>
VStem: 321.9 81.1992<0 165.715 248.572 414.285>
LayerCount: 2
Fore
SplineSet
321.900390625 414.28515625 m 1xb0
 403.099609375 414.28515625 l 1
 403.099609375 248.572265625 l 1
 562.2109375 248.572265625 l 1
 562.2109375 165.71484375 l 1
 403.099609375 165.71484375 l 1
 403.099609375 0 l 1
 321.900390625 0 l 1
 321.900390625 165.71484375 l 1
 156.2109375 165.71484375 l 1
 156.2109375 248.572265625 l 1
 321.900390625 248.572265625 l 1
 321.900390625 414.28515625 l 1xb0
EndSplineSet
Validated: 524289
EndChar
StartChar: hyphen
Encoding: 45 45 35
Width: 725
VWidth: 60
Flags: W
HStem: 165.714 82.8574<159.5 565.5>
LayerCount: 2
Fore
SplineSet
565.5 248.571289062 m 1
 565.5 165.713867188 l 1
 159.5 165.713867188 l 1
 159.5 248.571289062 l 1
 565.5 248.571289062 l 1
EndSplineSet
Validated: 524289
EndChar
StartChar: period
Encoding: 46 46 100
Width: 725
VWidth: 60
Flags: W
HStem: 0.000976562 82.8574<328.838 396.163>
VStem: 321.9 81.1992<6.53047 76.3286>
LayerCount: 2
Fore
SplineSet
362.5 82.8583984375 m 0
 384.911132812 82.8583984375 403.099609375 64.2978515625 403.099609375 41.4296875 c 0
 403.099609375 41.4296875 403.099609375 41.4287109375 403.099609375 41.4287109375 c 0
 403.099609375 18.560546875 384.911132812 0.0009765625 362.5 0.0009765625 c 0
 340.08984375 0.0009765625 321.901367188 18.560546875 321.900390625 41.4287109375 c 0
 321.900390625 41.4287109375 321.900390625 41.4296875 321.900390625 41.4296875 c 0
 321.900390625 64.2978515625 340.08984375 82.8583984375 362.5 82.8583984375 c 0
EndSplineSet
Validated: 524289
EndChar
StartChar: one
Encoding: 49 49 28
Width: 725
VWidth: 60
Flags: W
HStem: 0 21G<159.5 565.5> 0 21G<159.5 565.5> 560 20G<394.974 565.5> 560 20G<394.974 565.5>
VStem: 159.5 406<0 380.467>
LayerCount: 2
Fore
SplineSet
443.69921875 580 m 1xa8
 565.5 580 l 1
 565.5 0 l 1
 159.5 0 l 1
 159.5 380.466796875 l 1
 58 338.826171875 l 1
 58 421.68359375 l 1
 443.69921875 580 l 1xa8
EndSplineSet
Validated: 524289
EndChar
StartChar: equal
Encoding: 61 61 14
Width: 725
VWidth: 60
Flags: W
HStem: 82.8574 82.8564<159.5 565.5> 248.571 82.8574<159.5 565.5>
LayerCount: 2
Fore
SplineSet
565.5 331.428710938 m 1
 565.5 248.571289062 l 1
 159.5 248.571289062 l 1
 159.5 331.428710938 l 1
 565.5 331.428710938 l 1
565.5 165.713867188 m 1
 565.5 82.857421875 l 1
 159.5 82.857421875 l 1
 159.5 165.713867188 l 1
 565.5 165.713867188 l 1
EndSplineSet
Validated: 1
EndChar
StartChar: B
Encoding: 66 66 29
Width: 725
VWidth: 60
Flags: W
HStem: 0 103.037<464 514.132> 268.752 82.8574<464 514.132> 497.143 82.8574<464 518.239>
VStem: 58 406<103.037 268.752 351.609 497.143> 545.199 121.801<134.785 238.142> 545.199 101.197<378.821 470.847>
LayerCount: 2
Fore
SplineSet
58 580 m 1xf8
 464 580 l 2
 564.733398438 580 646.395507812 510.565429688 646.396484375 424.912109375 c 0xf4
 646.377929688 379.70703125 632.442382812 336.763671875 608.23828125 307.3203125 c 1
 644.671875 277.337890625 666.952148438 223.646484375 667 165.71484375 c 0
 667 74.193359375 576.114257812 -0 464 0 c 2
 58 0 l 1
 58 580 l 1xf8
464 497.142578125 m 1
 464 351.609375 l 1
 508.845703125 351.609375 545.19921875 384.188476562 545.19921875 424.376953125 c 0
 545.198242188 464.564453125 508.844726562 497.142578125 464 497.142578125 c 1
464 268.751953125 m 1
 464 103.037109375 l 1
 508.845703125 103.038085938 545.19921875 140.133789062 545.19921875 185.89453125 c 0xf8
 545.19921875 231.655273438 508.845703125 268.751953125 464 268.751953125 c 1
EndSplineSet
Validated: 524289
EndChar
StartChar: C
Encoding: 67 67 155
Width: 725
VWidth: 0
Flags: W
HStem: 508.979 87.5938<464 501.944>
VStem: 58 406<193.246 453.426>
LayerCount: 2
Fore
SplineSet
220.400390625 596.572265625 m 2
 504.599609375 596.572265625 l 2
 563.595703125 596.572265625 615.240234375 545.666015625 643.681640625 469.5234375 c 1
 517.306640625 469.5234375 l 1
 503.04296875 494.094726562 484.401367188 508.978515625 464 508.978515625 c 1
 464 187.810546875 l 1
 482.588867188 187.810546875 499.713867188 200.171875 513.400390625 220.953125 c 1
 666.0625 220.953125 l 1
 656.244140625 87.6748046875 569.532226562 -16.5703125 464 -16.5703125 c 1
 464 -16.572265625 l 1
 261 -16.572265625 l 2
 148.885742188 -16.572265625 57.9990234375 101.077148438 58 246.205078125 c 2
 58 333.796875 l 2
 58 478.923828125 130.708984375 596.572265625 220.400390625 596.572265625 c 2
EndSplineSet
Validated: 33
EndChar
StartChar: D
Encoding: 68 68 62
Width: 725
VWidth: 60
Flags: W
HStem: 0 21G<58 520.057> 0 21G<58 520.057> 497.143 82.8574<464 502.704>
VStem: 58 406<193.334 497.143> 545.199 121.801<248.614 439.195>
LayerCount: 2
Fore
SplineSet
58 580 m 1xb8
 504.599609375 580 l 2
 594.291015625 580 667 468.711914062 667 331.4296875 c 2
 667 248.572265625 l 2
 667 111.290039062 576.114257812 0 464 0 c 2
 58 0 l 1
 58 580 l 1xb8
464 497.142578125 m 1
 464 193.333984375 l 1
 508.844726562 193.334960938 545.19921875 261.344726562 545.19921875 345.23828125 c 0
 545.19921875 429.131835938 508.844726562 497.141601562 464 497.142578125 c 1
EndSplineSet
Validated: 524289
EndChar
StartChar: E
Encoding: 69 69 63
Width: 725
VWidth: 60
Flags: W
HStem: 0 82.8574<464 667> 331.428 82.8574<464 545.199> 497.143 82.8574<464 667>
VStem: 58 406<82.8574 331.428 414.285 497.143>
LayerCount: 2
Fore
SplineSet
58 580 m 1
 667 580 l 1
 667 497.142578125 l 1
 464 497.142578125 l 1
 464 414.28515625 l 1
 545.19921875 414.28515625 l 1
 545.19921875 331.427734375 l 1
 464 331.427734375 l 1
 464 82.857421875 l 1
 667 82.857421875 l 1
 667 0 l 1
 58 0 l 1
 58 580 l 1
EndSplineSet
Validated: 1
EndChar
StartChar: G
Encoding: 71 71 170
Width: 725
VWidth: 0
Flags: W
HStem: 0 21G<204.943 667> 0 21G<204.943 667> 508.979 87.5938<464 501.944>
VStem: 58 406<198.476 453.426> 510.691 156.309<202.494 303.811>
LayerCount: 2
Fore
SplineSet
220.400390625 596.572265625 m 2xb8
 504.599609375 596.572265625 l 2
 563.595703125 596.572265625 615.240234375 545.666015625 643.681640625 469.5234375 c 1
 517.306640625 469.5234375 l 1
 503.04296875 494.094726562 484.401367188 508.978515625 464 508.978515625 c 1
 464 193.333984375 l 1
 481.380859375 193.333984375 497.483398438 203.555664062 510.69140625 220.953125 c 1
 510.69140625 303.810546875 l 1
 667 303.810546875 l 1
 667 0 l 1
 261 0 l 2
 148.885742188 0 58 111.290039062 58 248.572265625 c 2
 58 333.796875 l 2
 58 478.923828125 130.708984375 596.572265625 220.400390625 596.572265625 c 2xb8
EndSplineSet
Validated: 524289
EndChar
StartChar: H
Encoding: 72 72 74
Width: 725
VWidth: 60
Flags: W
HStem: 0 21G<58 464 545.199 667> 0 21G<58 464 545.199 667> 331.428 82.8574<464 545.199> 560 20G<58 464 545.199 667> 560 20G<58 464 545.199 667>
VStem: 58 406<0 331.428 414.285 580> 545.199 121.801<0 331.428 414.285 580>
LayerCount: 2
Fore
SplineSet
58 580 m 1xb6
 464 580 l 1
 464 414.28515625 l 1
 545.19921875 414.28515625 l 1
 545.19921875 580 l 1
 667 580 l 1
 667 0 l 1
 545.19921875 0 l 1
 545.19921875 331.427734375 l 1
 464 331.427734375 l 1
 464 0 l 1
 58 0 l 1
 58 580 l 1xb6
EndSplineSet
Validated: 524289
EndChar
StartChar: J
Encoding: 74 74 89
Width: 725
VWidth: 60
Flags: W
HStem: 560 20G<261 667> 560 20G<261 667>
VStem: 58 81.2012<202.729 248.572> 261 406<163.533 580>
LayerCount: 2
Fore
SplineSet
261 580 m 1xb0
 667 580 l 1
 667 248.572265625 l 1
 667.728515625 248.572265625 l 1
 667.728515625 102.137695312 549.25 -16.572265625 403.099609375 -16.572265625 c 2
 321.900390625 -16.572265625 l 1
 321.900390625 -16.5625 l 1
 176.0859375 -16.16796875 58 102.381835938 58 248.572265625 c 1
 139.201171875 248.572265625 l 1
 139.201171875 248.544921875 l 2
 139.221679688 199.745117188 193.747070312 160.192382812 261 160.19140625 c 1
 261 580 l 1xb0
EndSplineSet
Validated: 524289
EndChar
StartChar: L
Encoding: 76 76 26
Width: 725
VWidth: 60
Flags: W
HStem: 0 82.8574<464 667> 560 20G<58 464> 560 20G<58 464>
VStem: 58 406<82.8574 580>
LayerCount: 2
Fore
SplineSet
58 580 m 1xd0
 464 580 l 1
 464 82.857421875 l 1
 667 82.857421875 l 1
 667 0 l 1
 464 0 261 0 58 0 c 1
 58 580 l 1xd0
EndSplineSet
Validated: 1
EndChar
StartChar: N
Encoding: 78 78 37
Width: 725
VWidth: 60
Flags: W
HStem: 0 21G<58 464 545.199 667> 0 21G<58 464 545.199 667> 560 20G<58 512.724 545.199 667> 560 20G<58 512.724 545.199 667>
VStem: 58 406<0 497.143> 545.199 121.801<0 463.812 546.67 580>
LayerCount: 2
Fore
SplineSet
58 580 m 1xac
 464 580 l 1
 545.19921875 546.669921875 l 1
 545.19921875 580 l 1
 667 580 l 1
 667 0 l 1
 545.19921875 0 l 1
 545.19921875 463.8125 l 1
 464 497.142578125 l 1
 464 0 l 1
 58 0 l 1
 58 580 l 1xac
EndSplineSet
Validated: 524289
EndChar
StartChar: O
Encoding: 79 79 7
Width: 725
VWidth: 60
Flags: W
HStem: -16.5723 613.145<187.671 576.114> 508.979 87.5938<464 500.966>
VStem: 545.199 121.801<246.249 447.721>
LayerCount: 2
Fore
SplineSet
220.400390625 596.572265625 m 2xa0
 504.599609375 596.572265625 l 2
 594.291015625 596.572265625 667 478.923828125 667 333.796875 c 2
 667 246.205078125 l 2
 667 101.078125 576.114257812 -16.5703125 464 -16.5703125 c 1
 464 -16.572265625 l 1
 261 -16.572265625 l 2
 148.885742188 -16.572265625 57.9990234375 101.077148438 58 246.205078125 c 2
 58 333.796875 l 2
 58 478.923828125 130.708984375 596.572265625 220.400390625 596.572265625 c 2xa0
464 508.978515625 m 1x60
 464 187.810546875 l 1
 508.844726562 187.811523438 545.19921875 259.70703125 545.19921875 348.39453125 c 0
 545.19921875 437.08203125 508.844726562 508.977539062 464 508.978515625 c 1x60
EndSplineSet
Validated: 524321
EndChar
StartChar: P
Encoding: 80 80 1
Width: 725
VWidth: 60
Flags: W
HStem: 0 21G<58 464> 0 21G<58 464> 497.143 82.8574<464 512.957>
VStem: 545.201 121.799<262.787 445.564>
LayerCount: 2
Fore
SplineSet
58 580 m 1xb0
 504.599609375 580 l 2
 594.291015625 580 667 468.7109375 667 331.427734375 c 0
 666.999023438 194.145507812 576.11328125 82.857421875 464 82.857421875 c 1
 464 0 l 1
 58 0 l 1
 58 580 l 1xb0
464 497.142578125 m 1
 464 331.427734375 l 1
 508.845703125 331.426757812 545.201171875 368.5234375 545.201171875 414.28515625 c 0
 545.201171875 460.046875 508.845703125 497.143554688 464 497.142578125 c 1
EndSplineSet
Validated: 33
EndChar
StartChar: Q
Encoding: 81 81 154
Width: 725
VWidth: 0
Flags: W
HStem: 0 21G<204.943 477.12 540.51 667> 0 21G<204.943 477.12 540.51 667> 513.714 82.8574<464 502.704>
VStem: 545.199 121.801<258.445 455.767>
LayerCount: 2
Fore
SplineSet
220.400390625 596.571289062 m 2xb0
 504.599609375 596.571289062 l 2
 594.291015625 596.571289062 667 485.283203125 667 348.000976562 c 2
 667 248.572265625 l 2
 666.928710938 194.788085938 652.612304688 142.484375 626.201171875 99.509765625 c 1
 667 82.857421875 l 1
 667 0 l 1
 585.80078125 0 l 1
 540.509765625 18.486328125 l 1
 516.221679688 6.3271484375 490.239257812 0.0498046875 464 0 c 2
 261 0 l 2
 148.885742188 0 58 111.290039062 58 248.572265625 c 2
 58 348.000976562 l 2
 58 485.283203125 130.708984375 596.571289062 220.400390625 596.571289062 c 2xb0
464 513.713867188 m 1
 464 193.333984375 l 1
 508.844726562 193.334960938 545.19921875 277.916015625 545.19921875 361.809570312 c 0
 545.19921875 445.703125 508.844726562 513.712890625 464 513.713867188 c 1
EndSplineSet
Validated: 524289
EndChar
StartChar: R
Encoding: 82 82 58
Width: 725
VWidth: 60
Flags: W
HStem: 0 21G<58 464 528.399 667> 0 21G<58 464 528.399 667> 497.145 82.8555<464 512.957>
VStem: 545.199 121.801<287.663 445.565>
LayerCount: 2
Fore
SplineSet
58 580 m 1xb0
 504.599609375 580 l 2
 594.290039062 580 667 468.711914062 667 331.4296875 c 0
 666.897460938 243.896484375 629.203125 162.881835938 567.76171875 118.140625 c 1
 667 0 l 1
 545.19921875 0 l 1
 464 96.666015625 l 1
 464 0 l 1
 58 0 l 1
 58 580 l 1xb0
464 497.14453125 m 1
 464 331.4296875 l 1
 508.845703125 331.4296875 545.19921875 368.526367188 545.19921875 414.287109375 c 0
 545.19921875 460.047851562 508.845703125 497.14453125 464 497.14453125 c 1
EndSplineSet
Validated: 524289
EndChar
StartChar: T
Encoding: 84 84 44
Width: 725
VWidth: 60
Flags: W
HStem: 0 21G<159.5 565.5> 0 21G<159.5 565.5> 497.143 82.8574<58 159.5 565.5 667>
VStem: 159.5 406<0 497.143>
LayerCount: 2
Fore
SplineSet
58 580 m 1xb0
 667 580 l 1
 667 497.142578125 l 1
 565.5 497.142578125 l 1
 565.5 0 l 1
 159.5 0 l 1
 159.5 497.142578125 l 1
 58 497.142578125 l 1
 58 580 l 1xb0
EndSplineSet
Validated: 524289
EndChar
StartChar: U
Encoding: 85 85 109
Width: 725
VWidth: 60
Flags: W
HStem: 560 20G<58 464 545.201 667> 560 20G<58 464 545.201 667>
VStem: 58 406<200.515 580> 545.201 121.799<232.506 580>
LayerCount: 2
Fore
SplineSet
58 580 m 1xb0
 261 580 l 1
 464 580 l 1
 464 281.71484375 l 1
 464 239.103515625 l 1
 464 196.490234375 l 2
 464 196.490234375 464.000976562 196.490234375 464.000976562 196.490234375 c 0
 508.823242188 196.490234375 545.201171875 234.670898438 545.201171875 281.71484375 c 0
 545.201171875 580 l 1
 667 580 l 1
 667 239.103515625 l 2
 667 239.103515625 667 239.102539062 667 239.102539062 c 0
 667 239.102539062 667 239.1015625 667 239.1015625 c 0
 666.999023438 97.970703125 548.772460938 -16.5703125 403.100585938 -16.5703125 c 0
 403.099609375 -16.5703125 403.099609375 -16.5703125 403.099609375 -16.5703125 c 2
 321.900390625 -16.5703125 l 2
 176.228515625 -16.5703125 58.0009765625 98.146484375 58 239.494140625 c 2
 58 580 l 1xb0
EndSplineSet
Validated: 524293
EndChar
StartChar: W
Encoding: 87 87 93
Width: 725
VWidth: 60
Flags: W
HStem: 0 21G<98 511 538.801 627> 0 21G<98 511 538.801 627> 560 20G<0 409.5 640.301 725> 560 20G<0 409.5 640.301 725>
VStem: 484.301 81.1992<297.028 331.428>
LayerCount: 2
Fore
SplineSet
0 580 m 1xa8
 406 580 l 1
 466.900390625 231.998046875 l 1
 484.30078125 331.427734375 l 1
 565.5 331.427734375 l 1
 582.900390625 231.998046875 l 1
 643.80078125 580 l 1
 725 580 l 1
 623.5 0 l 1
 542.30078125 0 l 1
 524.900390625 99.4296875 l 1
 507.5 0 l 1
 101.5 0 l 1
 0 580 l 1xa8
EndSplineSet
Validated: 524289
EndChar
StartChar: Y
Encoding: 89 89 72
Width: 725
VWidth: 60
Flags: W
HStem: 0 21G<159.5 565.5> 0 21G<159.5 565.5> 560 20G<58 188.198 536.802 667> 560 20G<58 188.198 536.802 667>
VStem: 159.5 406<0 455.715>
LayerCount: 2
Fore
SplineSet
58 580 m 1xa8
 139.19921875 580 l 1
 362.5 488.85546875 l 1
 585.80078125 580 l 1
 667 580 l 1
 667 497.142578125 l 1
 565.5 455.71484375 l 1
 565.5 0 l 1
 159.5 0 l 1
 159.5 455.71484375 l 1
 58 497.142578125 l 1
 58 580 l 1xa8
EndSplineSet
Validated: 1
EndChar
StartChar: bar
Encoding: 124 124 107
Width: 725
VWidth: 60
Flags: W
HStem: 0 21G<321.9 403.1> 0 21G<321.9 403.1> 560 20G<321.9 403.1> 560 20G<321.9 403.1>
VStem: 321.9 81.1992<0 580>
LayerCount: 2
Fore
SplineSet
321.900390625 580 m 1xa8
 403.099609375 580 l 1
 403.099609375 0 l 1
 321.900390625 0 l 1
 321.900390625 580 l 1xa8
EndSplineSet
Validated: 524289
EndChar
StartChar: yen
Encoding: 165 165 57
Width: 725
VWidth: 60
Flags: W
HStem: -0 21G<159.5 565.5> -0 21G<159.5 565.5> 82.8574 82.8574<58 159.5 565.5 667> 248.572 82.8555<58 159.5 565.5 667> 560 20G<58 188.198 536.802 667> 560 20G<58 188.198 536.802 667>
LayerCount: 2
Fore
SplineSet
58 580 m 1xb8
 139.19921875 580 l 1
 362.5 488.85546875 l 1
 585.80078125 580 l 1
 667 580 l 1
 667 497.142578125 l 1
 565.5 455.71484375 l 1
 565.5 331.427734375 l 1
 667 331.427734375 l 1
 667 248.572265625 l 1
 565.5 248.572265625 l 1
 565.5 165.71484375 l 1
 667 165.71484375 l 1
 667 82.857421875 l 1
 565.5 82.857421875 l 1
 565.5 -0 l 1
 159.5 -0 l 1
 159.5 82.857421875 l 1
 58 82.857421875 l 1
 58 165.71484375 l 1
 159.5 165.71484375 l 1
 159.5 248.572265625 l 1
 58 248.572265625 l 1
 58 331.427734375 l 1
 159.5 331.427734375 l 1
 159.5 455.71484375 l 1
 58 497.142578125 l 1
 58 580 l 1xb8
EndSplineSet
Validated: 524289
EndChar
StartChar: brokenbar
Encoding: 166 166 10
Width: 725
VWidth: 60
Flags: W
HStem: 0 21G<321.9 403.1> 0 21G<321.9 403.1> 560 20G<321.9 403.1> 560 20G<321.9 403.1>
VStem: 321.9 81.1992<0 248.571 331.429 580>
LayerCount: 2
Fore
SplineSet
321.900390625 580 m 1x28
 403.099609375 580 l 1
 403.099609375 331.428710938 l 1
 321.900390625 331.428710938 l 1
 321.900390625 580 l 1x28
321.900390625 248.571289062 m 1
 403.099609375 248.571289062 l 1
 403.099609375 0 l 1
 321.900390625 0 l 1x88
 321.900390625 248.571289062 l 1
EndSplineSet
Validated: 524289
EndChar
StartChar: gravecomb
Encoding: 768 768 173
Width: 725
VWidth: 0
Flags: W
HStem: 583.845 136.155
VStem: 301.601 121.8<637.143 670.004>
LayerCount: 2
Fore
SplineSet
423.400390625 670.00390625 m 1
 423.400390625 583.844726562 l 1
 301.600585938 637.142578125 l 1
 301.600585938 720 l 1
 423.400390625 670.00390625 l 1
EndSplineSet
Validated: 524289
EndChar
StartChar: uni0302
Encoding: 770 770 169
Width: 725
VWidth: 0
Flags: W
HStem: 583.846 136.154
VStem: 240.7 243.6<550.984 583.846>
LayerCount: 2
Fore
SplineSet
362.5 720 m 1
 484.299804688 670.00390625 l 1
 484.299804688 583.845703125 l 1
 362.5 637.142578125 l 1
 240.700195312 583.845703125 l 1
 240.700195312 670.00390625 l 1
 362.5 720 l 1
EndSplineSet
Validated: 1
EndChar
StartChar: uni0304
Encoding: 772 772 166
Width: 725
VWidth: 0
Flags: W
HStem: 621.429 82.8574<240.699 484.301>
VStem: 240.699 243.602<621.429 704.286>
LayerCount: 2
Fore
SplineSet
240.69921875 704.286132812 m 1
 484.30078125 704.286132812 l 1
 484.30078125 621.428710938 l 1
 240.69921875 621.428710938 l 1
 240.69921875 704.286132812 l 1
EndSplineSet
Validated: 1
EndChar
StartChar: uni0307
Encoding: 775 775 174
Width: 725
VWidth: 0
Flags: W
HStem: 621.429 82.8574<328.838 396.163>
VStem: 321.9 81.1992<627.958 697.756>
LayerCount: 2
Fore
SplineSet
362.5 704.286132812 m 0
 384.911132812 704.28515625 403.099609375 685.725585938 403.099609375 662.857421875 c 0
 403.099609375 662.856445312 403.099609375 662.856445312 403.099609375 662.856445312 c 0
 403.099609375 639.98828125 384.911132812 621.428710938 362.5 621.428710938 c 0
 340.08984375 621.428710938 321.901367188 639.98828125 321.900390625 662.856445312 c 0
 321.900390625 662.856445312 321.900390625 662.856445312 321.900390625 662.857421875 c 0
 321.900390625 685.725585938 340.08984375 704.28515625 362.5 704.286132812 c 0
EndSplineSet
Validated: 1
EndChar
StartChar: uni0308
Encoding: 776 776 164
Width: 725
VWidth: 0
Flags: W
HStem: 621.429 82.8574<247.637 314.962 410.039 477.364>
VStem: 240.7 81.1992<627.958 697.756> 403.102 81.1992<627.958 697.756>
LayerCount: 2
Fore
SplineSet
281.299804688 704.286132812 m 0
 303.7109375 704.28515625 321.899414062 685.725585938 321.899414062 662.857421875 c 0
 321.899414062 662.856445312 321.899414062 662.856445312 321.899414062 662.856445312 c 0
 321.899414062 639.98828125 303.709960938 621.428710938 281.299804688 621.428710938 c 0
 258.889648438 621.428710938 240.700195312 639.98828125 240.700195312 662.856445312 c 0
 240.700195312 662.856445312 240.700195312 662.856445312 240.700195312 662.857421875 c 0
 240.700195312 685.725585938 258.888671875 704.28515625 281.299804688 704.286132812 c 0
443.701171875 704.286132812 m 0
 466.112304688 704.28515625 484.30078125 685.725585938 484.30078125 662.857421875 c 0
 484.30078125 662.856445312 484.30078125 662.856445312 484.30078125 662.856445312 c 0
 484.30078125 639.98828125 466.111328125 621.428710938 443.701171875 621.428710938 c 0
 421.291015625 621.428710938 403.1015625 639.98828125 403.1015625 662.856445312 c 0
 403.1015625 662.856445312 403.1015625 662.856445312 403.1015625 662.857421875 c 0
 403.1015625 685.725585938 421.290039062 704.28515625 443.701171875 704.286132812 c 0
EndSplineSet
Validated: 524289
EndChar
StartChar: uni030B
Encoding: 779 779 171
Width: 725
VWidth: 0
Flags: W
HStem: 583.845 136.155
VStem: 220.399 284.202
LayerCount: 2
Fore
SplineSet
220.399414062 670.00390625 m 1
 342.200195312 720 l 1
 342.200195312 637.142578125 l 1
 220.399414062 583.844726562 l 1
 220.399414062 670.00390625 l 1
382.80078125 670.00390625 m 1
 504.6015625 720 l 1
 504.6015625 637.142578125 l 1
 382.80078125 583.844726562 l 1
 382.80078125 670.00390625 l 1
EndSplineSet
Validated: 1
EndChar
StartChar: uni030C
Encoding: 780 780 167
Width: 725
VWidth: 0
Flags: W
HStem: 583.846 136.154
VStem: 240.7 243.6<633.842 666.703>
LayerCount: 2
Fore
SplineSet
362.5 583.845703125 m 1
 240.700195312 633.841796875 l 1
 240.700195312 720 l 1
 362.5 666.703125 l 1
 484.299804688 720 l 1
 484.299804688 633.841796875 l 1
 362.5 583.845703125 l 1
EndSplineSet
Validated: 1
EndChar
StartChar: uni16CA
Encoding: 5834 5834 38
Width: 725
VWidth: 60
Flags: W
HStem: 0 21G<335.55 389.45> 0 21G<335.55 389.45> 560 20G<58 667> 560 20G<58 667>
LayerCount: 2
Fore
SplineSet
362.5 0 m 1xa0
 139.19921875 165.71484375 l 1
 58 580 l 1
 667 580 l 1
 585.80078125 165.71484375 l 1
 362.5 0 l 1xa0
EndSplineSet
Validated: 524289
EndChar
StartChar: exclamdbl
Encoding: 8252 8252 3
Width: 725
VWidth: 60
Flags: W
HStem: -0 82.8574<247.638 314.963 410.037 477.362> 560 20G<240.7 321.9 403.1 484.3> 560 20G<240.7 321.9 403.1 484.3>
VStem: 240.7 81.2002<6.52949 76.3276 165.714 580> 403.1 81.2002<6.52949 76.3276 165.714 580>
LayerCount: 2
Fore
SplineSet
281.299804688 82.857421875 m 0x98
 303.7109375 82.857421875 321.899414062 64.296875 321.899414062 41.4287109375 c 0
 321.899414062 41.4287109375 321.899414062 41.427734375 321.899414062 41.427734375 c 0
 321.899414062 18.5595703125 303.7109375 0 281.299804688 -0 c 0
 258.889648438 0 240.701171875 18.5595703125 240.700195312 41.427734375 c 0
 240.700195312 41.427734375 240.700195312 41.4287109375 240.700195312 41.4287109375 c 0
 240.700195312 64.296875 258.888671875 82.857421875 281.299804688 82.857421875 c 0x98
443.700195312 82.857421875 m 0
 466.111328125 82.857421875 484.299804688 64.296875 484.299804688 41.4287109375 c 0
 484.299804688 41.4287109375 484.299804688 41.427734375 484.299804688 41.427734375 c 0
 484.298828125 18.5595703125 466.110351562 0 443.700195312 -0 c 0
 421.2890625 0 403.100585938 18.5595703125 403.100585938 41.427734375 c 0
 403.100585938 41.427734375 403.100585938 41.4287109375 403.100585938 41.4287109375 c 0
 403.100585938 64.296875 421.2890625 82.857421875 443.700195312 82.857421875 c 0
403.099609375 580 m 1xd8
 484.299804688 580 l 1
 484.299804688 165.713867188 l 1
 403.099609375 165.713867188 l 1
 403.099609375 580 l 1xd8
240.700195312 580 m 1
 321.900390625 580 l 1
 321.900390625 165.713867188 l 1
 240.700195312 165.713867188 l 1
 240.700195312 580 l 1
EndSplineSet
Validated: 524289
EndChar
StartChar: uni2423
Encoding: 9251 9251 23
Width: 725
VWidth: 60
Flags: W
HStem: -140 82.8574<58 667> -57.1426 140<58 139.2 585.8 667>
VStem: 58 81.2002<-57.1426 82.8574> 585.8 81.2002<-57.1426 82.8574>
LayerCount: 2
Fore
SplineSet
667 -57.142578125 m 1xb0
 667 -140 l 1
 58 -140 l 1
 58 -57.142578125 l 1
 667 -57.142578125 l 1xb0
139.200195312 82.857421875 m 1x70
 139.200195312 -57.142578125 l 1
 58 -57.142578125 l 1xb0
 58 82.857421875 l 1
 139.200195312 82.857421875 l 1x70
667 82.857421875 m 1x70
 667 -57.142578125 l 1
 585.799804688 -57.142578125 l 1xb0
 585.799804688 82.857421875 l 1
 667 82.857421875 l 1x70
EndSplineSet
Validated: 524293
EndChar
StartChar: upblock
Encoding: 9600 9600 64
Width: 725
VWidth: 60
Flags: W
HStem: 290 430<0 725>
LayerCount: 2
Fore
SplineSet
725 720 m 1
 725 290 l 1
 0 290 l 1
 0 720 l 1
 725 720 l 1
EndSplineSet
Validated: 1
EndChar
StartChar: uni2581
Encoding: 9601 9601 22
Width: 725
VWidth: 60
Flags: W
HStem: -140 107.5<0 725>
LayerCount: 2
Fore
SplineSet
725 -32.5 m 1
 725 -140 l 1
 0 -140 l 1
 0 -32.5 l 1
 725 -32.5 l 1
EndSplineSet
Validated: 524289
EndChar
StartChar: uni2583
Encoding: 9603 9603 94
Width: 725
VWidth: 60
Flags: W
HStem: -140 322.5<0 725>
LayerCount: 2
Fore
SplineSet
725 182.5 m 1
 725 -140 l 1
 0 -140 l 1
 0 182.5 l 1
 725 182.5 l 1
EndSplineSet
Validated: 524289
EndChar
StartChar: uni2585
Encoding: 9605 9605 99
Width: 725
VWidth: 60
Flags: W
HStem: -140 537.5<0 725>
LayerCount: 2
Fore
SplineSet
725 397.5 m 1
 725 -140 l 1
 0 -140 l 1
 0 397.5 l 1
 725 397.5 l 1
EndSplineSet
Validated: 1
EndChar
StartChar: uni2586
Encoding: 9606 9606 88
Width: 725
VWidth: 60
Flags: W
HStem: -140 645<0 725>
VStem: 0 725<-140 505>
LayerCount: 2
Fore
SplineSet
725 505 m 1
 725 -140 l 1
 0 -140 l 1
 0 505 l 1
 725 505 l 1
EndSplineSet
Validated: 1
EndChar
StartChar: uni2587
Encoding: 9607 9607 34
Width: 725
VWidth: 60
Flags: W
HStem: -140 752.5<0 725>
VStem: 0 725<-140 612.5>
LayerCount: 2
Fore
SplineSet
725 612.5 m 1
 725 -140 l 1
 0 -140 l 1
 0 612.5 l 1
 725 612.5 l 1
EndSplineSet
Validated: 1
EndChar
StartChar: uni2589
Encoding: 9609 9609 111
Width: 725
VWidth: 60
Flags: W
VStem: 0 634.375<-140 720>
LayerCount: 2
Fore
SplineSet
634.375 720 m 1
 634.375 -140 l 1
 0 -140 l 1
 0 720 l 1
 634.375 720 l 1
EndSplineSet
Validated: 524289
EndChar
StartChar: uni258B
Encoding: 9611 9611 104
Width: 725
VWidth: 60
Flags: W
VStem: 0 453.125<-140 720>
LayerCount: 2
Fore
SplineSet
453.125 720 m 1
 453.125 -140 l 1
 0 -140 l 1
 0 720 l 1
 453.125 720 l 1
EndSplineSet
Validated: 1
EndChar
StartChar: uni258E
Encoding: 9614 9614 49
Width: 725
VWidth: 60
Flags: W
VStem: 0 181.25<-140 720>
LayerCount: 2
Fore
SplineSet
181.25 720 m 1
 181.25 -140 l 1
 0 -140 l 1
 0 720 l 1
 181.25 720 l 1
EndSplineSet
Validated: 524289
EndChar
StartChar: dkshade
Encoding: 9619 9619 15
Width: 725
VWidth: 60
Flags: W
HStem: -54 86<72.5 145 217.5 290 362.5 435 507.5 580 652.5 725> 118 86<72.5 145 217.5 290 362.5 435 507.5 580 652.5 725> 290 86<72.5 145 217.5 290 362.5 435 507.5 580 652.5 725> 462 86<72.5 145 217.5 290 362.5 435 507.5 580 652.5 725> 634 86<72.5 145 217.5 290 362.5 435 507.5 580 652.5 725>
VStem: 0 72.5<-140 -54 32 118 204 290 376 462 548 634> 145 72.5<-140 -54 32 118 204 290 376 462 548 634> 290 72.5<-140 -54 32 118 204 290 376 462 548 634> 435 72.5<-140 -54 32 118 204 290 376 462 548 634> 580 72.5<-140 -54 32 118 204 290 376 462 548 634>
LayerCount: 2
Fore
SplineSet
0 720 m 1
 725 720 l 1
 725 634 l 1
 652.5 634 l 1
 652.5 548 l 1
 725 548 l 1
 725 462 l 1
 652.5 462 l 1
 652.5 376 l 1
 725 376 l 1
 725 290 l 1
 652.5 290 l 1
 652.5 204 l 1
 725 204 l 1
 725 118 l 1
 652.5 118 l 1
 652.5 32 l 1
 725 32 l 1
 725 -54 l 1
 652.5 -54 l 1
 652.5 -140 l 1
 580 -140 l 1
 580 -54 l 1
 507.5 -54 l 1
 507.5 -140 l 1
 435 -140 l 1
 435 -54 l 1
 362.5 -54 l 1
 362.5 -140 l 1
 290 -140 l 1
 290 -54 l 1
 217.5 -54 l 1
 217.5 -140 l 1
 145 -140 l 1
 145 -54 l 1
 72.5 -54 l 1
 72.5 -140 l 1
 0 -140 l 1
 0 720 l 1
72.5 634 m 1
 72.5 548 l 1
 145 548 l 1
 145 634 l 1
 72.5 634 l 1
217.5 634 m 1
 217.5 548 l 1
 290 548 l 1
 290 634 l 1
 217.5 634 l 1
362.5 634 m 1
 362.5 548 l 1
 435 548 l 1
 435 634 l 1
 362.5 634 l 1
507.5 634 m 1
 507.5 548 l 1
 580 548 l 1
 580 634 l 1
 507.5 634 l 1
72.5 462 m 1
 72.5 376 l 1
 145 376 l 1
 145 462 l 1
 72.5 462 l 1
217.5 462 m 1
 217.5 376 l 1
 290 376 l 1
 290 462 l 1
 217.5 462 l 1
362.5 462 m 1
 362.5 376 l 1
 435 376 l 1
 435 462 l 1
 362.5 462 l 1
507.5 462 m 1
 507.5 376 l 1
 580 376 l 1
 580 462 l 1
 507.5 462 l 1
72.5 290 m 1
 72.5 204 l 1
 145 204 l 1
 145 290 l 1
 72.5 290 l 1
217.5 290 m 1
 217.5 204 l 1
 290 204 l 1
 290 290 l 1
 217.5 290 l 1
362.5 290 m 1
 362.5 204 l 1
 435 204 l 1
 435 290 l 1
 362.5 290 l 1
507.5 290 m 1
 507.5 204 l 1
 580 204 l 1
 580 290 l 1
 507.5 290 l 1
72.5 118 m 1
 72.5 32 l 1
 145 32 l 1
 145 118 l 1
 72.5 118 l 1
217.5 118 m 1
 217.5 32 l 1
 290 32 l 1
 290 118 l 1
 217.5 118 l 1
362.5 118 m 1
 362.5 32 l 1
 435 32 l 1
 435 118 l 1
 362.5 118 l 1
507.5 118 m 1
 507.5 32 l 1
 580 32 l 1
 580 118 l 1
 507.5 118 l 1
EndSplineSet
Validated: 524289
EndChar
StartChar: uni259B
Encoding: 9627 9627 69
Width: 725
VWidth: 60
Flags: W
HStem: 0 21G<58 362.5> 0 21G<58 362.5> 290 290<362.5 667>
VStem: 58 304.5<0 290>
LayerCount: 2
Fore
SplineSet
58 580 m 1xb0
 667 580 l 1
 667 290 l 1
 362.5 290 l 1
 362.5 0 l 1
 58 0 l 1
 58 580 l 1xb0
EndSplineSet
Validated: 524289
EndChar
StartChar: uni2637
Encoding: 9783 9783 77
Width: 725
VWidth: 60
Flags: W
HStem: 41.4287 82.8574<58 301.6 423.4 667> 248.571 82.8574<58 301.6 423.4 667> 455.714 82.8574<58 301.6 423.4 667>
VStem: 58 243.6<41.4287 124.286 248.571 331.429 455.714 538.571> 423.4 243.6<41.4287 124.286 248.571 331.429 455.714 538.571>
CounterMasks: 1 e0
LayerCount: 2
Fore
SplineSet
301.599609375 331.428710938 m 1
 301.599609375 248.571289062 l 1
 58 248.571289062 l 1
 58 331.428710938 l 1
 301.599609375 331.428710938 l 1
667 331.428710938 m 1
 667 248.571289062 l 1
 423.400390625 248.571289062 l 1
 423.400390625 331.428710938 l 1
 667 331.428710938 l 1
301.599609375 538.571289062 m 1
 301.599609375 455.713867188 l 1
 58 455.713867188 l 1
 58 538.571289062 l 1
 301.599609375 538.571289062 l 1
667 538.571289062 m 1
 667 455.713867188 l 1
 423.400390625 455.713867188 l 1
 423.400390625 538.571289062 l 1
 667 538.571289062 l 1
301.599609375 124.286132812 m 1
 301.599609375 41.4287109375 l 1
 58 41.4287109375 l 1
 58 124.286132812 l 1
 301.599609375 124.286132812 l 1
667 124.286132812 m 1
 667 41.4287109375 l 1
 423.400390625 41.4287109375 l 1
 423.400390625 124.286132812 l 1
 667 124.286132812 l 1
EndSplineSet
Validated: 524289
EndChar
StartChar: uni268C
Encoding: 9868 9868 106
Width: 725
VWidth: 60
Flags: W
HStem: 103.571 124.286<58 667> 352.143 124.286<58 667>
LayerCount: 2
Fore
SplineSet
667 352.142578125 m 1
 58 352.142578125 l 1
 58 476.428710938 l 1
 667 476.428710938 l 1
 667 352.142578125 l 1
667 103.571289062 m 1
 58 103.571289062 l 1
 58 227.857421875 l 1
 667 227.857421875 l 1
 667 103.571289062 l 1
EndSplineSet
Validated: 1
EndChar
StartChar: uni268F
Encoding: 9871 9871 98
Width: 725
VWidth: 60
Flags: W
HStem: 103.571 124.286<58 301.6 423.4 667> 352.143 124.286<58 301.6 423.4 667>
VStem: 58 243.6<103.571 227.857 352.143 476.429> 423.4 243.6<103.571 227.857 352.143 476.429>
LayerCount: 2
Fore
SplineSet
301.599609375 103.571289062 m 1
 58 103.571289062 l 1
 58 227.857421875 l 1
 301.599609375 227.857421875 l 1
 301.599609375 103.571289062 l 1
667 103.571289062 m 1
 423.400390625 103.571289062 l 1
 423.400390625 227.857421875 l 1
 667 227.857421875 l 1
 667 103.571289062 l 1
301.599609375 352.142578125 m 1
 58 352.142578125 l 1
 58 476.428710938 l 1
 301.599609375 476.428710938 l 1
 301.599609375 352.142578125 l 1
667 352.142578125 m 1
 423.400390625 352.142578125 l 1
 423.400390625 476.428710938 l 1
 667 476.428710938 l 1
 667 352.142578125 l 1
EndSplineSet
Validated: 524289
EndChar
StartChar: uni2690
Encoding: 9872 9872 50
Width: 725
VWidth: 60
Flags: W
HStem: 0 21G<58 139.199> 0 21G<58 139.199> 165.715 82.8574<139.199 585.801> 497.143 82.8574<139.199 585.801>
VStem: 58 81.1992<0 165.715 248.572 497.143> 585.801 81.1992<248.572 497.143>
LayerCount: 2
Fore
SplineSet
58 580 m 1xbc
 667 580 l 1
 667 165.71484375 l 1
 139.19921875 165.71484375 l 1
 139.19921875 0 l 1
 58 0 l 1
 58 580 l 1xbc
139.19921875 497.142578125 m 1
 139.19921875 248.572265625 l 1
 585.80078125 248.572265625 l 1
 585.80078125 497.142578125 l 1
 139.19921875 497.142578125 l 1
EndSplineSet
Validated: 1
EndChar
StartChar: uni26F0
Encoding: 9968 9968 117
Width: 725
VWidth: 60
Flags: W
HStem: 0 21G<58 667> 0 21G<58 667> 560 20G<413.332 431.8> 560 20G<413.332 431.8>
LayerCount: 2
Fore
SplineSet
423.400390625 580 m 1xa0
 667 0 l 1
 58 0 l 1
 220.400390625 414.286132812 l 1
 301.599609375 338.043945312 l 1
 423.400390625 580 l 1xa0
EndSplineSet
Validated: 524289
EndChar
StartChar: uni26F6
Encoding: 9974 9974 108
Width: 725
VWidth: 60
Flags: W
HStem: 0 192.072<64.937 139.199 585.801 660.063> 0 82.8574<139.199 261 464 585.801> 387.928 192.072<64.937 139.199 585.801 660.063> 497.143 82.8574<139.199 261 464 585.801>
VStem: 58 203<6.52949 82.8574 497.143 573.471> 58 81.1992<82.8574 192.072 387.928 497.143> 464 203<6.52949 82.8574 497.143 573.471> 585.801 81.1992<82.8574 192.072 387.928 497.143>
LayerCount: 2
Fore
SplineSet
585.80078125 192.072265625 m 1x81
 667 192.072265625 l 1x81
 667 82.857421875 l 1x42
 667 41.427734375 l 2
 667 18.5595703125 648.810546875 0 626.400390625 0 c 2x82
 464 0 l 1
 464 82.857421875 l 1x42
 585.80078125 82.857421875 l 1x41
 585.80078125 192.072265625 l 1x81
464 580 m 1x12
 626.400390625 580 l 2x22
 648.810546875 580 667 561.440429688 667 538.572265625 c 2
 667 497.142578125 l 1x12
 667 387.927734375 l 1
 585.80078125 387.927734375 l 1x21
 585.80078125 497.142578125 l 1x11
 464 497.142578125 l 1
 464 580 l 1x12
98.599609375 580 m 2
 261 580 l 1
 261 497.142578125 l 1x18
 139.19921875 497.142578125 l 1x14
 139.19921875 387.927734375 l 1
 58 387.927734375 l 1x24
 58 497.142578125 l 1
 58 538.572265625 l 2x18
 58 561.440429688 76.189453125 580 98.599609375 580 c 2
58 192.072265625 m 1x84
 139.19921875 192.072265625 l 1x84
 139.19921875 82.857421875 l 1x44
 261 82.857421875 l 1
 261 0 l 1x48
 98.599609375 0 l 2x88
 76.189453125 0 58 18.5595703125 58 41.427734375 c 2
 58 82.857421875 l 1x48
 58 192.072265625 l 1x84
EndSplineSet
Validated: 1
EndChar
StartChar: uni2719
Encoding: 10009 10009 84
Width: 725
VWidth: 60
Flags: W
HStem: 0 82.8574<321.9 403.1> 165.234 92.668<139.199 240.699 484.301 585.801> 340.758 73.0469<139.199 240.699 484.301 585.801> 497.143 82.8574<321.9 403.1>
VStem: 58 81.1992<257.902 340.758> 240.699 81.2012<82.8574 165.234 413.805 497.143> 403.1 81.2012<82.8574 165.234 413.805 497.143> 585.801 81.1992<257.902 340.758>
LayerCount: 2
Fore
SplineSet
240.69921875 580 m 1
 484.30078125 580 l 1
 484.30078125 413.8046875 l 1
 667 413.8046875 l 1
 667 165.234375 l 1
 484.30078125 165.234375 l 1
 484.30078125 0 l 1
 240.69921875 0 l 1
 240.69921875 165.234375 l 1
 58 165.234375 l 1
 58 413.8046875 l 1
 240.69921875 413.8046875 l 1
 240.69921875 580 l 1
321.900390625 497.142578125 m 1
 321.900390625 340.7578125 l 1
 139.19921875 340.7578125 l 1
 139.19921875 257.90234375 l 1
 321.900390625 257.90234375 l 1
 321.900390625 82.857421875 l 1
 403.099609375 82.857421875 l 1
 403.099609375 257.90234375 l 1
 585.80078125 257.90234375 l 1
 585.80078125 340.7578125 l 1
 403.099609375 340.7578125 l 1
 403.099609375 497.142578125 l 1
 321.900390625 497.142578125 l 1
EndSplineSet
Validated: 1
EndChar
StartChar: uni271D
Encoding: 10013 10013 0
Width: 725
VWidth: 60
Flags: W
HStem: 0 21G<321.9 403.1> 0 21G<321.9 403.1> 331.428 82.8574<159.5 321.9 403.1 565.5> 560 20G<321.9 403.1> 560 20G<321.9 403.1>
VStem: 321.9 81.1992<0 331.428 414.285 580>
LayerCount: 2
Fore
SplineSet
321.900390625 580 m 1xb4
 403.099609375 580 l 1
 403.099609375 414.28515625 l 1
 565.5 414.28515625 l 1
 565.5 331.427734375 l 1
 403.099609375 331.427734375 l 1
 403.099609375 0 l 1
 321.900390625 0 l 1
 321.900390625 331.427734375 l 1
 159.5 331.427734375 l 1
 159.5 414.28515625 l 1
 321.900390625 414.28515625 l 1
 321.900390625 580 l 1xb4
EndSplineSet
Validated: 1
EndChar
StartChar: uni272A
Encoding: 10026 10026 400
Width: 725
VWidth: 0
Flags: W
LayerCount: 2
Fore
SplineSet
362.49609375 580 m 0
 530.668945312 580.001953125 667.000976562 450.1640625 667 290 c 0
 667.000976562 129.8359375 530.668945312 -0.001953125 362.49609375 0 c 0
 194.326171875 0.001953125 57.9990234375 129.838867188 58 290 c 0
 57.9990234375 450.161132812 194.326171875 579.998046875 362.49609375 580 c 0
362.5 567.44921875 m 1
 304.46875 370.927734375 l 1
 99.634765625 376.466796875 l 1
 268.603515625 260.546875 l 1
 200.041015625 67.44921875 l 1
 362.5 192.328125 l 1
 524.958984375 67.44921875 l 1
 456.396484375 260.546875 l 1
 625.365234375 376.466796875 l 1
 420.53125 370.927734375 l 1
 362.5 567.44921875 l 1
EndSplineSet
Validated: 524321
EndChar
StartChar: uni278D
Encoding: 10125 10125 384
Width: 725
VWidth: 0
Flags: W
HStem: 0 96.666<484.299 530.669> 483.334 96.666<257.799 467.195>
VStem: 439.834 44.4648<172.158 192.412> 565.5 101.5<129.836 192.412>
LayerCount: 2
Fore
SplineSet
362.49609375 580 m 0
 530.668945312 580.001953125 667.000976562 450.1640625 667 290 c 0
 667.000976562 129.8359375 530.668945312 -0.001953125 362.49609375 0 c 0
 194.326171875 0.001953125 57.9990234375 129.838867188 58 290 c 0
 57.9990234375 450.161132812 194.326171875 579.998046875 362.49609375 580 c 0
223.623046875 483.333984375 m 1
 159.5 116.919921875 l 1
 484.298828125 116.919921875 l 1
 484.298828125 96.666015625 l 1
 565.5 96.666015625 l 1
 565.5 192.412109375 l 1
 484.298828125 192.412109375 l 1
 484.298828125 172.158203125 l 1
 439.833984375 172.158203125 l 1
 494.2890625 483.333984375 l 1
 223.623046875 483.333984375 l 1
EndSplineSet
Validated: 33
EndChar
StartChar: uni2790
Encoding: 10128 10128 101
Width: 725
VWidth: 60
Flags: W
HStem: 0 96.666<257.799 467.195> 483.334 96.666<257.799 467.195>
LayerCount: 2
Fore
SplineSet
362.49609375 580 m 0
 530.668945312 580.001953125 667.000976562 450.1640625 667 290 c 0
 667.000976562 129.8359375 530.668945312 -0.001953125 362.49609375 0 c 0
 194.326171875 0.001953125 57.9990234375 129.838867188 58 290 c 0
 57.9990234375 450.161132812 194.326171875 579.998046875 362.49609375 580 c 0
159.5 483.333984375 m 1
 159.5 428.095703125 l 1
 285.166015625 428.095703125 l 1
 227.166015625 96.666015625 l 1
 497.833984375 96.666015625 l 1
 565.5 483.333984375 l 1
 159.5 483.333984375 l 1
EndSplineSet
Validated: 33
EndChar
StartChar: uni29E9
Encoding: 10729 10729 95
Width: 725
VWidth: 60
Flags: W
HStem: 0 21G<139.199 220.398 504.6 585.799> 0 21G<139.199 220.398 504.6 585.799> 331.428 82.8574<220.398 504.6> 497.143 82.8574<58 139.199 220.398 504.6 585.799 667>
VStem: 139.199 81.1992<0 331.428 414.285 497.143> 504.6 81.1992<0 331.428 414.285 497.143>
LayerCount: 2
Fore
SplineSet
58 580 m 1xbc
 667 580 l 1
 667 497.142578125 l 1
 585.798828125 497.142578125 l 1
 585.798828125 0 l 1
 504.599609375 0 l 1
 504.599609375 331.427734375 l 1
 220.3984375 331.427734375 l 1
 220.3984375 0 l 1
 139.19921875 0 l 1
 139.19921875 497.142578125 l 1
 58 497.142578125 l 1
 58 580 l 1xbc
220.3984375 497.142578125 m 1
 220.3984375 414.28515625 l 1
 504.599609375 414.28515625 l 1
 504.599609375 497.142578125 l 1
 220.3984375 497.142578125 l 1
EndSplineSet
Validated: 524289
EndChar
StartChar: uniA746
Encoding: 42822 42822 405
Width: 725
VWidth: 0
Flags: W
HStem: 0 82.8574<464 667> 560 20G<139.199 545.199> 560 20G<139.199 545.199>
LayerCount: 2
Fore
SplineSet
139.19921875 580 m 1xc0
 545.19921875 580 l 1
 545.19921875 331.427734375 l 1
 464 331.427734375 l 1
 464 82.857421875 l 1
 667 82.857421875 l 1
 667 0 l 1
 58 0 l 1
 58 331.427734375 l 1
 139.19921875 331.427734375 l 1
 139.19921875 580 l 1xc0
EndSplineSet
Validated: 524289
EndChar
StartChar: uniA7AE
Encoding: 42926 42926 401
Width: 725
VWidth: 0
Flags: W
HStem: 0 82.8574<58 159.5 565.5 667> 497.143 82.8574<58 159.5 565.5 667>
VStem: 159.5 406<82.8574 497.143>
LayerCount: 2
Fore
SplineSet
58 580 m 1
 667 580 l 1
 667 497.142578125 l 1
 565.5 497.142578125 l 1
 565.5 82.857421875 l 1
 667 82.857421875 l 1
 667 0 l 1
 58 0 l 1
 58 82.857421875 l 1
 159.5 82.857421875 l 1
 159.5 497.142578125 l 1
 58 497.142578125 l 1
 58 580 l 1
EndSplineSet
Validated: 524289
EndChar
StartChar: uniFFED
Encoding: 65517 65517 114
Width: 725
VWidth: 60
Flags: W
HStem: 82.8574 414.285<159.5 565.5>
VStem: 159.5 406<82.8574 497.143>
LayerCount: 2
Fore
SplineSet
159.5 497.142578125 m 1
 565.5 497.142578125 l 1
 565.5 82.857421875 l 1
 159.5 82.857421875 l 1
 159.5 497.142578125 l 1
EndSplineSet
Validated: 1
EndChar
StartChar: u1F4EF
Encoding: 128239 128239 112
Width: 725
VWidth: 60
Flags: W
HStem: 68.3584 121.742<318.765 403.361> 307.028 65.8301<319.579 403.362>
VStem: 58.0039 172.338<304.125 414.278> 419.512 65.8164<206.256 290.878> 585.801 81.1992<325.135 414.286>
LayerCount: 2
Fore
SplineSet
58.00390625 414.278320312 m 2
 58 414.286132812 l 1
 189.7421875 414.286132812 l 1
 230.341796875 414.286132812 l 1
 230.458984375 382.192382812 238.774414062 331.830078125 248.90234375 301.870117188 c 1
 267.48046875 341.0078125 317.719726562 372.810546875 361.04296875 372.858398438 c 0
 429.6484375 372.857421875 485.328125 317.177734375 485.328125 248.572265625 c 0
 485.328125 248.572265625 485.328125 248.571289062 485.328125 248.571289062 c 0
 485.3046875 232.676757812 479.595703125 208.200195312 472.5859375 193.936523438 c 1
 534.978515625 234.099609375 585.698242188 332.81640625 585.80078125 414.286132812 c 1
 667 414.286132812 l 1
 666.736328125 289.462890625 584.756835938 147.732421875 484.009765625 97.9228515625 c 1
 484.374023438 97.9423828125 484.963867188 97.9755859375 485.328125 97.99609375 c 1
 482.515625 96.66796875 477.91796875 94.60546875 475.064453125 93.392578125 c 0
 472.7265625 92.3740234375 468.912109375 90.7841796875 466.548828125 89.84375 c 0
 460.798828125 87.41796875 451.3515625 83.8720703125 445.4609375 81.927734375 c 0
 443.73828125 81.40234375 440.93359375 80.583984375 439.201171875 80.099609375 c 0
 432.58984375 78.103515625 421.760742188 75.3642578125 415.029296875 73.984375 c 0
 413.935546875 73.787109375 412.158203125 73.478515625 411.0625 73.296875 c 0
 403.6484375 71.904296875 391.548828125 70.2587890625 384.0546875 69.623046875 c 0
 383.911132812 69.603515625 383.678710938 69.572265625 383.53515625 69.5537109375 c 0
 377.739257812 68.9951171875 368.315429688 68.4599609375 362.5 68.3583984375 c 0
 348.111328125 68.3583984375 324.92578125 70.61328125 310.74609375 73.3916015625 c 0
 259.508789062 83.4306640625 187.653320312 124.978515625 150.35546875 166.131835938 c 0
 144.321289062 172.788085938 135.026367188 184.122070312 129.607421875 191.430664062 c 0
 124.188476562 198.73828125 115.936523438 211.069335938 111.1875 218.956054688 c 0
 106.438476562 226.841796875 99.3115234375 240.046875 95.279296875 248.432617188 c 0
 74.703125 291.221679688 58.00390625 365.520507812 58.00390625 414.27734375 c 0
 58.00390625 414.278320312 58.00390625 414.278320312 58.00390625 414.278320312 c 2
361.046875 307.028320312 m 0
 361.046875 307.028320312 361.045898438 307.028320312 361.045898438 307.028320312 c 0
 328.7734375 307.028320312 302.58203125 280.8359375 302.58203125 248.564453125 c 0
 302.58203125 248.563476562 302.58203125 248.563476562 302.58203125 248.563476562 c 0
 302.583007812 216.291992188 328.774414062 190.100585938 361.045898438 190.100585938 c 0
 361.045898438 190.100585938 361.046875 190.100585938 361.046875 190.100585938 c 0
 361.046875 190.100585938 361.047851562 190.100585938 361.047851562 190.100585938 c 0
 393.319335938 190.100585938 419.510742188 216.291992188 419.51171875 248.563476562 c 0
 419.51171875 248.563476562 419.51171875 248.563476562 419.51171875 248.564453125 c 0
 419.51171875 280.8359375 393.3203125 307.028320312 361.047851562 307.028320312 c 0
 361.047851562 307.028320312 361.046875 307.028320312 361.046875 307.028320312 c 0
EndSplineSet
Validated: 524289
EndChar
